<svg viewBox="0 0 160 62">
  <g fill="#F4D8CD" fill-rule="evenodd">
    <path d="M26.6,21.8v7.8h12.1v8.2H26.6v10.5H16.2v-35h22.6v8.5H26.6z"/>
    <path d="M70.6,23.4v24.9h-9.8v-3.7c-0.7,1.3-1.7,2.4-3.1,3.2c-1.4,0.8-3.1,1.1-5.1,1.1c-2.8,0-5-0.8-6.5-2.3
      c-0.9-1-1.5-2.1-1.9-3.5c-0.3-1.4-0.4-3-0.4-4.9V23.4h9.9V36c0,1.5,0.2,2.7,0.8,3.5c0.5,0.8,1.4,1.2,2.6,1.2c2.5,0,3.8-1.7,3.8-5.2
      V23.4H70.6z"/>
    <path d="M96.2,32.2c-0.7-0.2-1.2-0.3-1.7-0.4c-0.5-0.1-1-0.1-1.5-0.1c-1,0-1.9,0.1-2.8,0.3c-0.8,0.2-1.5,0.6-2.1,1.2
      c-0.6,0.6-1.1,1.4-1.4,2.4c-0.3,1-0.5,2.3-0.5,3.8v8.8h-9.8V23.4h9.8v4c0.6-1.2,1.5-2.2,2.8-3.1s2.9-1.4,4.8-1.4
      c0.8,0,1.6,0.1,2.4,0.4V32.2z"/>
    <path d="M109.1,48.3h-9.8v-35h9.8v13.9c0.2-0.5,0.6-1,1-1.5c0.5-0.5,1-1,1.7-1.4c0.7-0.4,1.5-0.8,2.3-1c0.8-0.2,1.8-0.4,2.8-0.4
      c1.6,0,3,0.3,4.4,1c1.4,0.6,2.5,1.5,3.5,2.6c1,1.1,1.8,2.5,2.4,4.1c0.6,1.6,0.9,3.4,0.9,5.3c0,2-0.3,3.8-0.9,5.4
      c-0.6,1.6-1.4,3-2.4,4.1c-1,1.1-2.2,2-3.5,2.7c-1.4,0.6-2.8,0.9-4.4,0.9c-1,0-2-0.1-2.8-0.4c-0.9-0.2-1.6-0.6-2.3-1
      c-0.7-0.4-1.2-0.9-1.7-1.4c-0.5-0.5-0.8-1-1.1-1.6V48.3z M113.7,40.8c1.4,0,2.5-0.5,3.4-1.5c0.9-1,1.3-2.1,1.3-3.5
      c0-1.4-0.4-2.5-1.3-3.5c-0.8-1-2-1.4-3.4-1.4c-1.4,0-2.5,0.5-3.4,1.4c-0.8,1-1.3,2.1-1.3,3.5c0,1.3,0.4,2.5,1.3,3.5
      C111.2,40.3,112.3,40.8,113.7,40.8z"/>
    <path d="M146,59.1c-2.4,0-4.5-0.2-6.2-0.6c-1.7-0.4-3.1-1-4.2-1.8c-1.1-0.8-1.9-1.8-2.4-3s-0.8-2.7-0.8-4.4h9.8
      c0,1,0.3,1.8,0.9,2.4c0.6,0.6,1.5,0.9,2.9,0.9c1.4,0,2.3-0.4,2.9-1.1c0.6-0.8,0.9-2,0.9-3.8v-3.9c-0.7,1.3-1.7,2.3-3.1,3.1
      c-1.4,0.8-3.1,1.1-5.1,1.1c-2.8,0-5-0.8-6.5-2.3c-0.9-1-1.5-2.1-1.8-3.5c-0.3-1.4-0.5-3-0.5-4.9V23.4h9.8V36c0,1.5,0.2,2.7,0.8,3.5
      c0.5,0.8,1.4,1.2,2.7,1.2c2.5,0,3.8-1.7,3.8-5.2V23.4h9.8v23.4c0,2.2-0.2,4.1-0.7,5.7s-1.2,2.8-2.2,3.8c-1,1-2.4,1.7-4.2,2.1
      C150.8,58.9,148.6,59.1,146,59.1z"/>
  </g>
</svg>
